<svg width="1071" height="252" viewBox="0 0 1071 252" fill="none" xmlns="http://www.w3.org/2000/svg">
<path d="M1165.57 197.635L1167.34 199.408L1163.79 202.932L1162.03 201.159L1165.57 197.635ZM-0.000496782 0.33463L28.6164 4.13018L11.0209 27.0154L-0.000496782 0.33463ZM1162.03 201.159C1117.85 156.702 1042.52 102.16 960.206 82.8474C919.086 73.2004 876.301 72.3606 834.78 85.8715C793.277 99.3764 752.854 127.278 716.527 175.416L712.536 172.404C749.404 123.55 790.642 94.9759 833.233 81.117C875.805 67.2641 919.545 68.1721 961.348 77.9796C1044.88 97.5759 1120.99 152.77 1165.57 197.635L1162.03 201.159ZM716.527 175.416C680.6 223.023 630.155 245.463 572.049 250.207C514.02 254.945 448.277 242.05 381.404 218.989C247.648 172.864 108.657 85.8129 16.3566 16.0643L19.371 12.0752C111.444 81.6521 249.962 168.373 383.034 214.262C449.574 237.209 514.575 249.883 571.642 245.223C628.633 240.571 677.637 218.649 712.536 172.404L716.527 175.416Z" fill="#16D6A8"/>
</svg>
