<svg width="274" height="255" viewBox="0 0 274 255" fill="none" xmlns="http://www.w3.org/2000/svg">
<path d="M269.706 0.519295L246.672 17.9188L273.257 29.1676L269.706 0.519295ZM113.895 139.709L115.931 138.258L113.895 139.709ZM258.668 20.1951C242.085 55.7645 214.978 98.4268 187.411 125.496C173.592 139.065 159.928 148.444 147.644 151.307C141.558 152.726 135.875 152.532 130.652 150.523C125.425 148.512 120.455 144.605 115.931 138.258L111.859 141.16C116.833 148.139 122.54 152.759 128.857 155.189C135.177 157.62 141.903 157.78 148.779 156.177C162.418 152.998 176.89 142.835 190.914 129.063C219.036 101.45 246.452 58.2298 263.2 22.308L258.668 20.1951ZM115.931 138.258C105.129 123.103 97.4577 102.591 90.144 82.9449C86.5103 73.1843 82.9633 63.6419 79.1854 55.2476C75.416 46.8722 71.3378 39.4553 66.5703 34.0148C61.7757 28.5434 56.1146 24.8875 49.2342 24.486C42.416 24.0882 34.9343 26.9209 26.5337 33.2308C9.7967 45.8023 -11.7391 73.0571 -40.8305 121.211L-36.5508 123.797C-7.46218 75.647 13.6496 49.1617 29.5365 37.2287C37.4478 31.2863 43.7722 29.1758 48.9429 29.4775C54.0512 29.7756 58.5616 32.4622 62.8099 37.3101C67.0852 42.1889 70.9212 49.0681 74.6259 57.2996C78.3221 65.5123 81.8092 74.8876 85.4582 84.6894C92.7097 104.168 100.598 125.36 111.859 141.16L115.931 138.258ZM-40.8305 121.211C-69.8985 169.327 -95.9941 208.528 -118.588 236.97C-129.886 251.192 -140.271 262.678 -149.681 271.231C-159.12 279.811 -167.432 285.306 -174.571 287.742C-181.61 290.145 -187.333 289.534 -192.067 286.154C-196.952 282.665 -201.205 275.936 -204.474 265.175C-211.008 243.667 -213.169 207.565 -210.221 154.693L-215.213 154.415C-218.164 207.345 -216.067 244.213 -209.258 266.628C-205.856 277.83 -201.166 285.8 -194.973 290.223C-188.627 294.754 -181.135 295.266 -172.956 292.474C-164.877 289.717 -155.968 283.703 -146.318 274.931C-136.639 266.132 -126.067 254.423 -114.673 240.08C-91.8854 211.394 -65.6628 171.985 -36.5508 123.797L-40.8305 121.211Z" fill="#16D6A8"/>
</svg>
