<svg width="12" height="12" viewBox="0 0 12 12" fill="none" xmlns="http://www.w3.org/2000/svg">
<path fill-rule="evenodd" clip-rule="evenodd" d="M7.41413 6.00001L11.7071 1.70701C12.0981 1.31601 12.0981 0.684006 11.7071 0.293006C11.3161 -0.0979941 10.6841 -0.0979941 10.2931 0.293006L6.00013 4.58601L1.70713 0.293006C1.31613 -0.0979941 0.684128 -0.0979941 0.293128 0.293006C-0.0978721 0.684006 -0.0978721 1.31601 0.293128 1.70701L4.58613 6.00001L0.293128 10.293C-0.0978721 10.684 -0.0978721 11.316 0.293128 11.707C0.488128 11.902 0.744128 12 1.00013 12C1.25613 12 1.51213 11.902 1.70713 11.707L6.00013 7.41401L10.2931 11.707C10.4881 11.902 10.7441 12 11.0001 12C11.2561 12 11.5121 11.902 11.7071 11.707C12.0981 11.316 12.0981 10.684 11.7071 10.293L7.41413 6.00001Z" fill="black"/>
</svg>
