<svg width="737" height="575" viewBox="0 0 737 575" fill="none" xmlns="http://www.w3.org/2000/svg">
<path d="M-31.3524 570.962L-32.1961 573.315L-27.4894 575.002L-26.6457 572.649L-31.3524 570.962ZM734.3 0.557445L710.359 16.687L736.298 29.3557L734.3 0.557445ZM-26.6457 572.649C-6.35252 516.041 33.2283 439.767 85.8963 394.496C112.196 371.89 141.581 357.164 173.329 356.255C205.031 355.348 239.522 368.206 276.1 401.619L279.472 397.928C242.191 363.872 206.493 350.304 173.186 351.257C139.925 352.209 109.48 367.631 82.6371 390.704C29.0201 436.791 -10.9328 514.002 -31.3524 570.962L-26.6457 572.649ZM276.1 401.619C294.237 418.187 313.513 427.725 333.56 431.242C353.593 434.757 374.239 432.232 395.093 424.924C436.73 410.331 479.458 376.577 520.49 332.977C602.597 245.732 678.737 118.162 726.676 21.8643L722.2 19.6361C674.356 115.744 598.472 242.819 516.849 329.55C476.016 372.939 433.953 406.006 393.44 420.205C373.219 427.292 353.45 429.655 334.424 426.317C315.412 422.982 296.986 413.926 279.472 397.928L276.1 401.619Z" fill="#16D6A8"/>
</svg>
