<svg width="501" height="299" viewBox="0 0 501 299" fill="none" xmlns="http://www.w3.org/2000/svg">
<path d="M3.16708 222.595L26.8779 206.129L0.762427 193.828L3.16708 222.595ZM186.817 88.3108L184.395 88.9327L186.817 88.3108ZM14.9947 203.35C38.4236 156.739 75.1337 102.784 109.112 73.3963C126.21 58.6079 142.018 50.5682 154.787 51.9135C167.088 53.2095 177.858 63.4815 184.395 88.9327L189.238 87.6888C182.523 61.546 170.785 48.5712 155.311 46.941C140.304 45.36 123.068 54.7146 105.841 69.6145C71.1685 99.6031 34.1035 154.2 10.5273 201.105L14.9947 203.35ZM184.395 88.9327C191.841 117.92 194.968 153.505 197.902 187.146C200.819 220.596 203.553 252.311 210.333 272.991C213.709 283.289 218.266 291.442 224.889 295.485C231.776 299.688 240.135 299.037 249.94 293.532C259.687 288.06 271.304 277.582 285.299 261.242C299.326 244.866 315.871 222.449 335.448 192.921L331.281 190.158C311.763 219.595 295.345 241.828 281.502 257.989C267.628 274.187 256.468 284.133 247.492 289.172C238.573 294.179 232.263 294.127 227.494 291.217C222.461 288.145 218.376 281.473 215.084 271.433C208.529 251.437 205.824 220.429 202.883 186.711C199.959 153.184 196.807 117.155 189.238 87.6888L184.395 88.9327ZM335.448 192.921C374.523 133.989 408.737 87.1904 437.166 55.0822C451.384 39.0241 464.093 26.712 475.184 18.4004C486.346 10.0355 495.544 5.97264 502.794 5.8515C506.351 5.79207 509.453 6.67906 512.176 8.50893C514.924 10.355 517.418 13.2509 519.576 17.401C523.924 25.761 526.71 38.8213 527.607 57.1758C529.399 93.8204 523.628 150.449 509.254 229.818L514.174 230.709C528.56 151.273 534.423 94.176 532.601 56.9316C531.692 38.3415 528.86 24.4163 524.012 15.0941C521.573 10.4032 518.574 6.78394 514.965 4.35874C511.331 1.91735 507.212 0.776993 502.711 0.852195C493.846 1.00032 483.587 5.85466 472.185 14.3993C460.712 22.9972 447.749 35.587 433.422 51.7677C404.762 84.137 370.397 131.163 331.281 190.158L335.448 192.921Z" fill="#16D6A8"/>
</svg>
