<svg width="320" height="294" viewBox="0 0 320 294" fill="none" xmlns="http://www.w3.org/2000/svg">
<path d="M315.706 293.847L292.672 276.448L319.257 265.199L315.706 293.847ZM159.895 154.658L161.931 156.109L159.895 154.658ZM304.668 274.171C288.085 238.602 260.978 195.94 233.411 168.871C219.592 155.301 205.928 145.923 193.644 143.059C187.558 141.641 181.875 141.835 176.652 143.844C171.425 145.854 166.455 149.761 161.931 156.109L157.859 153.207C162.833 146.228 168.54 141.607 174.857 139.177C181.177 136.746 187.903 136.587 194.779 138.19C208.418 141.369 222.89 151.532 236.914 165.303C265.036 192.917 292.452 236.137 309.2 272.058L304.668 274.171ZM161.931 156.109C151.129 171.264 143.458 191.776 136.144 211.422C132.51 221.182 128.963 230.725 125.185 239.119C121.416 247.494 117.338 254.911 112.57 260.352C107.776 265.823 102.115 269.479 95.2342 269.88C88.416 270.278 80.9343 267.446 72.5337 261.136C55.7967 248.564 34.2609 221.309 5.16951 173.155L9.44918 170.57C38.5378 218.719 59.6496 245.205 75.5365 257.138C83.4478 263.08 89.7722 265.191 94.9429 264.889C100.051 264.591 104.562 261.904 108.81 257.056C113.085 252.178 116.921 245.298 120.626 237.067C124.322 228.854 127.809 219.479 131.458 209.677C138.71 190.198 146.598 169.006 157.859 153.207L161.931 156.109ZM5.16951 173.155C-23.8985 125.039 -49.9941 85.8389 -72.5884 57.3961C-83.8858 43.1744 -94.2714 31.6888 -103.681 23.1353C-113.12 14.5555 -121.432 9.06043 -128.571 6.62413C-135.61 4.22195 -141.333 4.83258 -146.067 8.21276C-150.952 11.7013 -155.205 18.4309 -158.474 29.1913C-165.008 50.6996 -167.169 86.8019 -164.221 139.673L-169.213 139.951C-172.164 87.0213 -170.067 50.1532 -163.258 27.738C-159.856 16.5367 -155.166 8.56632 -148.973 4.14368C-142.627 -0.387315 -135.135 -0.899122 -126.956 1.8921C-118.877 4.64917 -109.968 10.6633 -100.318 19.4355C-90.6386 28.234 -80.0671 39.9432 -68.6734 54.2861C-45.8854 82.9726 -19.6628 122.381 9.44918 170.57L5.16951 173.155Z" fill="#16D6A8"/>
</svg>
