<svg width="593" height="81" viewBox="0 0 593 81" fill="none" xmlns="http://www.w3.org/2000/svg">
<circle cx="40.502" cy="40.9614" r="40" fill="#DAD7FE"/>
<path fill-rule="evenodd" clip-rule="evenodd" d="M58.0439 60.8318C58.0439 62.2374 56.9464 63.3781 55.5886 63.3781C54.2308 63.3781 53.1332 62.2374 53.1332 60.8318C53.1332 53.8117 47.6259 48.1004 40.8564 48.1004C34.087 48.1004 28.5797 53.8117 28.5797 60.8318C28.5797 62.2374 27.4821 63.3781 26.1243 63.3781C24.7665 63.3781 23.6689 62.2374 23.6689 60.8318C23.6689 51.0031 31.3812 43.0078 40.8564 43.0078C50.3317 43.0078 58.0439 51.0031 58.0439 60.8318ZM40.8564 22.6374C43.5647 22.6374 45.7672 24.9214 45.7672 27.73C45.7672 30.5386 43.5647 32.8226 40.8564 32.8226C38.1482 32.8226 35.9457 30.5386 35.9457 27.73C35.9457 24.9214 38.1482 22.6374 40.8564 22.6374ZM40.8564 37.9152C46.273 37.9152 50.6779 33.3471 50.6779 27.73C50.6779 22.1129 46.273 17.5448 40.8564 17.5448C35.4399 17.5448 31.035 22.1129 31.035 27.73C31.035 33.3471 35.4399 37.9152 40.8564 37.9152Z" fill="#4339F2"/>
<circle cx="168.502" cy="40.9614" r="40" fill="#CCE6FE"/>
<path fill-rule="evenodd" clip-rule="evenodd" d="M186.044 60.8318C186.044 62.2374 184.946 63.3781 183.589 63.3781C182.231 63.3781 181.133 62.2374 181.133 60.8318C181.133 53.8117 175.626 48.1004 168.856 48.1004C162.087 48.1004 156.58 53.8117 156.58 60.8318C156.58 62.2374 155.482 63.3781 154.124 63.3781C152.766 63.3781 151.669 62.2374 151.669 60.8318C151.669 51.0031 159.381 43.0078 168.856 43.0078C178.332 43.0078 186.044 51.0031 186.044 60.8318ZM168.856 22.6374C171.565 22.6374 173.767 24.9214 173.767 27.73C173.767 30.5386 171.565 32.8226 168.856 32.8226C166.148 32.8226 163.946 30.5386 163.946 27.73C163.946 24.9214 166.148 22.6374 168.856 22.6374ZM168.856 37.9152C174.273 37.9152 178.678 33.3471 178.678 27.73C178.678 22.1129 174.273 17.5448 168.856 17.5448C163.44 17.5448 159.035 22.1129 159.035 27.73C159.035 33.3471 163.44 37.9152 168.856 37.9152Z" fill="#02A0FC"/>
<circle cx="296.502" cy="40.9614" r="40" fill="#FFE1A6"/>
<path fill-rule="evenodd" clip-rule="evenodd" d="M314.044 60.8318C314.044 62.2374 312.946 63.3781 311.589 63.3781C310.231 63.3781 309.133 62.2374 309.133 60.8318C309.133 53.8117 303.626 48.1004 296.856 48.1004C290.087 48.1004 284.58 53.8117 284.58 60.8318C284.58 62.2374 283.482 63.3781 282.124 63.3781C280.766 63.3781 279.669 62.2374 279.669 60.8318C279.669 51.0031 287.381 43.0078 296.856 43.0078C306.332 43.0078 314.044 51.0031 314.044 60.8318ZM296.856 22.6374C299.565 22.6374 301.767 24.9214 301.767 27.73C301.767 30.5386 299.565 32.8226 296.856 32.8226C294.148 32.8226 291.946 30.5386 291.946 27.73C291.946 24.9214 294.148 22.6374 296.856 22.6374ZM296.856 37.9152C302.273 37.9152 306.678 33.3471 306.678 27.73C306.678 22.1129 302.273 17.5448 296.856 17.5448C291.44 17.5448 287.035 22.1129 287.035 27.73C287.035 33.3471 291.44 37.9152 296.856 37.9152Z" fill="#FFB200"/>
<circle cx="424.502" cy="40.9614" r="40" fill="#E2FBD7"/>
<path fill-rule="evenodd" clip-rule="evenodd" d="M442.044 60.8318C442.044 62.2374 440.946 63.3781 439.589 63.3781C438.231 63.3781 437.133 62.2374 437.133 60.8318C437.133 53.8117 431.626 48.1004 424.856 48.1004C418.087 48.1004 412.58 53.8117 412.58 60.8318C412.58 62.2374 411.482 63.3781 410.124 63.3781C408.766 63.3781 407.669 62.2374 407.669 60.8318C407.669 51.0031 415.381 43.0078 424.856 43.0078C434.332 43.0078 442.044 51.0031 442.044 60.8318ZM424.856 22.6374C427.565 22.6374 429.767 24.9214 429.767 27.73C429.767 30.5386 427.565 32.8226 424.856 32.8226C422.148 32.8226 419.946 30.5386 419.946 27.73C419.946 24.9214 422.148 22.6374 424.856 22.6374ZM424.856 37.9152C430.273 37.9152 434.678 33.3471 434.678 27.73C434.678 22.1129 430.273 17.5448 424.856 17.5448C419.44 17.5448 415.035 22.1129 415.035 27.73C415.035 33.3471 419.44 37.9152 424.856 37.9152Z" fill="#34B53A"/>
<circle cx="552.502" cy="40.9614" r="40" fill="#FFD3D3"/>
<path fill-rule="evenodd" clip-rule="evenodd" d="M570.044 60.8318C570.044 62.2374 568.946 63.3781 567.589 63.3781C566.231 63.3781 565.133 62.2374 565.133 60.8318C565.133 53.8117 559.626 48.1004 552.856 48.1004C546.087 48.1004 540.58 53.8117 540.58 60.8318C540.58 62.2374 539.482 63.3781 538.124 63.3781C536.766 63.3781 535.669 62.2374 535.669 60.8318C535.669 51.0031 543.381 43.0078 552.856 43.0078C562.332 43.0078 570.044 51.0031 570.044 60.8318ZM552.856 22.6374C555.565 22.6374 557.767 24.9214 557.767 27.73C557.767 30.5386 555.565 32.8226 552.856 32.8226C550.148 32.8226 547.946 30.5386 547.946 27.73C547.946 24.9214 550.148 22.6374 552.856 22.6374ZM552.856 37.9152C558.273 37.9152 562.678 33.3471 562.678 27.73C562.678 22.1129 558.273 17.5448 552.856 17.5448C547.44 17.5448 543.035 22.1129 543.035 27.73C543.035 33.3471 547.44 37.9152 552.856 37.9152Z" fill="#FF3A29"/>
</svg>
