<svg width="1302" height="716" viewBox="0 0 1302 716" fill="none" xmlns="http://www.w3.org/2000/svg">
<path d="M1026.02 252.394L1026.4 249.922L1026.02 252.394ZM633.212 704.204L633.835 706.625L633.212 704.204ZM7 0L28.1495 19.6476L0.559448 28.1399L7 0ZM1328 517.782C1325.81 518.996 1325.81 518.995 1325.81 518.994C1325.81 518.992 1325.81 518.99 1325.81 518.987C1325.81 518.98 1325.8 518.97 1325.79 518.956C1325.78 518.929 1325.75 518.887 1325.72 518.83C1325.66 518.718 1325.56 518.549 1325.44 518.324C1325.18 517.876 1324.8 517.207 1324.3 516.332C1323.29 514.582 1321.78 512.007 1319.81 508.717C1315.85 502.138 1310.01 492.702 1302.48 481.296C1287.4 458.48 1265.55 427.798 1238.44 396.327C1184.13 333.264 1109.14 267.532 1025.65 254.866L1026.4 249.922C1111.77 262.874 1187.78 329.837 1242.23 393.064C1269.51 424.737 1291.49 455.599 1306.65 478.54C1314.23 490.012 1320.11 499.509 1324.09 506.142C1326.09 509.459 1327.61 512.06 1328.63 513.835C1329.14 514.722 1329.53 515.403 1329.79 515.863C1329.92 516.093 1330.02 516.268 1330.08 516.387C1330.12 516.446 1330.14 516.491 1330.16 516.521C1330.17 516.536 1330.17 516.548 1330.18 516.556C1330.18 516.56 1330.18 516.563 1330.18 516.565C1330.18 516.568 1330.19 516.569 1328 517.782ZM1025.65 254.866C993.755 250.027 967.804 252.416 946.274 260.288C924.754 268.157 907.484 281.565 893.039 299.029C864.046 334.081 846.581 385.247 829.198 440.234C811.878 495.018 794.671 553.467 766.073 602.199C737.409 651.044 697.2 690.313 633.835 706.625L632.589 701.783C694.344 685.885 733.582 647.686 761.761 599.668C790.007 551.537 807.041 493.729 824.43 438.726C841.755 383.926 859.465 331.775 889.186 295.843C904.097 277.815 922.068 263.815 944.557 255.592C967.035 247.373 993.861 244.986 1026.4 249.922L1025.65 254.866ZM633.835 706.625C544.307 729.672 463.043 706.097 391.048 656.013C319.115 605.971 256.335 529.411 203.499 446.194C97.8202 279.75 31.5095 86.003 11.2385 22.268L16.0033 20.7526C36.2389 84.3764 102.395 277.626 207.72 443.514C260.387 526.464 322.743 602.404 393.903 651.908C465.002 701.369 544.787 724.386 632.589 701.783L633.835 706.625Z" fill="#16D6A8"/>
</svg>
